<svg width="48" height="48" viewBox="0 0 48 48" fill="none" xmlns="http://www.w3.org/2000/svg">
<rect width="48" height="48" rx="24" fill="#F7F5F3"/>
<path d="M24.0001 17.9851C24.0001 17.9849 24.0002 17.9848 24.0003 17.9848C26.0922 17.9847 27.7895 16.2894 27.7895 14.1953C27.7895 12.1011 26.0936 10.4062 24.0001 10.4062C21.9065 10.4062 20.2112 12.1016 20.2112 14.1958C20.2112 16.2899 21.9063 17.9852 23.9998 17.9854C23.9999 17.9854 24.0001 17.9852 24.0001 17.9851Z" fill="#0D0D0D"/>
<path d="M15.5076 22.8886C17.5997 22.8886 19.2971 21.1933 19.2971 19.0991C19.2971 17.0049 17.6018 15.3095 15.5076 15.3095C13.4135 15.3095 11.7188 17.0054 11.7188 19.0991C11.7188 21.1927 13.4141 22.8886 15.5076 22.8886Z" fill="#0D0D0D"/>
<path d="M32.4925 22.8886C34.5845 22.8886 36.282 21.1933 36.282 19.0991C36.282 17.0049 34.5866 15.3095 32.4925 15.3095C30.3985 15.3095 28.7036 17.0049 28.7036 19.0991C28.7036 21.1933 30.399 22.8886 32.4925 22.8886Z" fill="#0D0D0D"/>
<path d="M15.5076 32.6967C17.5997 32.6967 19.2971 31.0015 19.2971 28.9073C19.2971 26.8131 17.6018 25.1177 15.5076 25.1177C13.4135 25.1177 11.7188 26.8136 11.7188 28.9073C11.7188 31.001 13.4141 32.6967 15.5076 32.6967Z" fill="#0D0D0D"/>
<path d="M32.4925 32.692C34.5845 32.692 36.282 30.9968 36.282 28.9025C36.282 26.8083 34.5866 25.113 32.4925 25.113C30.3985 25.113 28.7036 26.8083 28.7036 28.9025C28.7036 30.9968 30.399 32.692 32.4925 32.692Z" fill="#0D0D0D"/>
<path d="M24.0001 37.5937C26.0921 37.5937 27.7895 35.8983 27.7895 33.8041C27.7895 31.7101 26.0942 30.0146 24.0001 30.0146C21.9059 30.0146 20.2112 31.7101 20.2112 33.8041C20.2112 35.8983 21.9065 37.5937 24.0001 37.5937Z" fill="#0D0D0D"/>
</svg>
