<svg width="32" height="32" viewBox="0 0 32 32" fill="none" xmlns="http://www.w3.org/2000/svg">
<g clip-path="url(#clip0_3220_86972)">
<path d="M25.1428 14.9545L26.9859 8.97559H32.0001V23.0251H28.8091V18.9011C28.8091 16.2832 28.8489 14.0205 28.9281 12.1131C28.6773 13.0734 28.3601 14.1389 27.9769 15.3097L25.5392 23.0251H22.8042L20.3665 15.3097C20.0758 14.3757 19.7653 13.3167 19.435 12.1328C19.5011 14.3428 19.5341 16.5989 19.5341 18.9011V23.0251H16.3433V8.97559H21.3574L23.2204 15.0137C23.4714 15.8688 23.7951 17.033 24.1915 18.5064C24.5086 17.2567 24.8257 16.0727 25.1428 14.9545Z" fill="black"/>
<path fill-rule="evenodd" clip-rule="evenodd" d="M12.466 21.3275C11.1315 22.6693 9.38749 23.3402 7.23385 23.3402C5.08021 23.3402 3.33617 22.6693 2.0017 21.3275C0.667233 19.9725 0 18.1966 0 15.9997C0 13.8028 0.667233 12.0269 2.0017 10.6719C3.33617 9.33009 5.08021 8.65918 7.23385 8.65918C9.38749 8.65918 11.1315 9.33009 12.466 10.6719C13.0884 11.3038 13.5656 12.0273 13.8977 12.8424C14.1769 13.5275 14.3535 14.2774 14.4276 15.0919C14.4543 15.386 14.4677 15.6886 14.4677 15.9997C14.4677 18.1966 13.8005 19.9725 12.466 21.3275ZM7.23385 20.4395C6.09757 20.4395 5.19252 20.0448 4.51869 19.2556C3.83162 18.4794 3.48811 17.3941 3.48811 15.9997C3.48811 14.6053 3.83162 13.52 4.51869 12.7438C5.19252 11.9545 6.09757 11.5599 7.23385 11.5599C8.35692 11.5599 9.26858 11.9545 9.96883 12.7438C10.6559 13.52 10.9994 14.6053 10.9994 15.9997C10.9994 17.3941 10.6559 18.4794 9.96883 19.2556C9.26858 20.0448 8.35692 20.4395 7.23385 20.4395Z" fill="black"/>
</g>
<defs>
<clipPath id="clip0_3220_86972">
<rect width="32" height="32" fill="white"/>
</clipPath>
</defs>
</svg>
